Coordinates
version=1
nRows=14
nColumns=24
inDegrees=yes

Units are S.I. units (second, meters, Newtons, ...)
Angles are in degrees.

endheader
time	pelvis_tilt	pelvis_list	pelvis_rotation	pelvis_tx	pelvis_ty	pelvis_tz	hip_flexion_r	hip_adduction_r	hip_rotation_r	knee_angle_r	ankle_angle_r	subtalar_angle_r	mtp_angle_r	hip_flexion_l	hip_adduction_l	hip_rotation_l	knee_angle_l	ankle_angle_l	subtalar_angle_l	mtp_angle_l	lumbar_extension	lumbar_bending	lumbar_rotation
      2.95500000	     -1.30649605	     -5.58713735	     -5.96717894	     -1.15285903	      0.93690934	      0.22939462	     12.62779210	     13.10969925	     10.74265211	    -24.01462267	     14.47080930	    -16.37281623	      0.00000000	     26.26589106	     -7.01817313	     -4.71930544	    -71.27110089	     12.32437645	    -12.09079337	      0.00000000	    -12.35867941	      4.82214068	     -5.83288046
      2.96000000	     -1.27073835	     -5.28983949	     -6.11520522	     -1.14577493	      0.93810625	      0.22990152	     11.83847599	     12.80587227	     11.19915247	    -23.52679934	     14.55373056	    -16.63532120	      0.00000000	     26.78704183	     -6.72305433	     -4.85233977	    -70.25279926	     12.78318751	    -11.59386078	      0.00000000	    -12.37525860	      4.39567784	     -5.67612971
      2.96500000	     -1.25499180	     -4.99153041	     -6.27238944	     -1.13870243	      0.93918471	      0.23038890	     11.09057317	     12.49690221	     11.64013387	    -23.06591123	     14.63362417	    -16.89357551	      0.00000000	     27.29053190	     -6.42951253	     -5.00493078	    -69.13827129	     13.21232976	    -11.17991077	      0.00000000	    -12.36835510	      3.97628200	     -5.52435510
      2.97000000	     -1.24564128	     -4.69971256	     -6.43272895	     -1.13163110	      0.94015258	      0.23088803	     10.35904261	     12.19318342	     12.08411695	    -22.61677412	     14.71749377	    -17.16450658	      0.00000000	     27.76733798	     -6.14495364	     -5.16455643	    -67.93906582	     13.58481434	    -10.84357197	      0.00000000	    -12.35393883	      3.56169026	     -5.35763889
      2.97500000	     -1.24335732	     -4.41689647	     -6.59451449	     -1.12456197	      0.94100278	      0.23139501	      9.64533971	     11.89533619	     12.51996148	    -22.18028236	     14.81227553	    -17.43671765	      0.00000000	     28.21736191	     -5.87126492	     -5.32722016	    -66.65704729	     13.91041775	    -10.57869859	      0.00000000	    -12.33131831	      3.15614444	     -5.17801023
      2.98000000	     -1.24519668	     -4.14938649	     -6.76270418	     -1.11748241	      0.94174270	      0.23188699	      8.94632048	     11.60698376	     12.93940919	    -21.75898170	     14.91453626	    -17.69970904	      0.00000000	     28.63454693	     -5.61455436	     -5.49544955	    -65.29268906	     14.19013283	    -10.38301850	      0.00000000	    -12.30320264	      2.77415105	     -4.98817599
      2.98500000	     -1.25197389	     -3.89891667	     -6.93284214	     -1.11040723	      0.94236294	      0.23236599	      8.26813143	     11.33055858	     13.34116532	    -21.36305886	     15.02819580	    -17.93989533	      0.00000000	     29.01956628	     -5.37194143	     -5.65824509	    -63.84555431	     14.44099539	    -10.25512677	      0.00000000	    -12.27139907	      2.41275728	     -4.79497848
      2.99000000	     -1.26178628	     -3.66400538	     -7.10573781	     -1.10331443	      0.94286298	      0.23284767	      7.60399326	     11.06518754	     13.72541092	    -20.98719975	     15.16511596	    -18.15637874	      0.00000000	     29.36996941	     -5.14666290	     -5.82033904	    -62.32017582	     14.65460251	    -10.18471013	      0.00000000	    -12.23333853	      2.07289940	     -4.59787132
      2.99500000	     -1.29329554	     -3.44934287	     -7.26930643	     -1.09619103	      0.94320395	      0.23334281	      6.97615468	     10.81652588	     14.04987242	    -20.63181770	     15.33995546	    -18.33586736	      0.00000000	     29.71184798	     -4.94855461	     -5.98048351	    -60.72774131	     14.83706009	    -10.15089972	      0.00000000	    -12.16439731	      1.75447366	     -4.44405183
      3.00000000	     -1.27541003	     -3.25665988	     -7.46284131	     -1.08910743	      0.94352084	      0.23380444	      6.30206735	     10.58227529	     14.45315554	    -20.29933637	     15.50474420	    -18.50665806	      0.00000000	     29.95432236	     -4.75775208	     -6.12403757	    -59.04875625	     14.97630282	    -10.17960731	      0.00000000	    -12.17243067	      1.46078441	     -4.16838999
      3.00500000	     -1.29843365	     -3.07879442	     -7.62722023	     -1.08195399	      0.94364422	      0.23428141	      5.68444160	     10.36128753	     14.76052431	    -19.98582541	     15.71519212	    -18.64675959	      0.00000000	     30.21189770	     -4.59187971	     -6.26535348	    -57.31003110	     15.10205327	    -10.20319132	      0.00000000	    -12.11336266	      1.18966654	     -3.99971852
      3.01000000	     -1.27516772	     -2.92834107	     -7.81742116	     -1.07484149	      0.94373214	      0.23471782	      5.02648744	     10.15810894	     15.12089352	    -19.69773577	     15.93245561	    -18.75906239	      0.00000000	     30.37699813	     -4.43709457	     -6.37559741	    -55.49589578	     15.19417313	    -10.25532962	      0.00000000	    -12.13165852	      0.94825684	     -3.72233123
      3.01500000	     -1.29748564	     -2.78919874	     -7.97551773	     -1.06764964	      0.94362351	      0.23519115	      4.42735177	      9.97054332	     15.39765809	    -19.42771874	     16.18788620	    -18.85858007	      0.00000000	     30.56014912	     -4.30311606	     -6.47688237	    -53.62382233	     15.28533112	    -10.27385329	      0.00000000	    -12.07310363	      0.72033782	     -3.55026501
      3.02000000	     -1.24968832	     -2.67977630	     -8.16399282	     -1.06051328	      0.94352077	      0.23560046	      3.76579586	      9.79859040	     15.73627424	    -19.19123369	     16.44549151	    -18.92403060	      0.00000000	     30.62397909	     -4.18243081	     -6.55628897	    -51.67724396	     15.34563069	    -10.30984814	      0.00000000	    -12.12376611	      0.52661762	     -3.25900768
